<svg width="1057" height="215" viewBox="0 0 1057 215" fill="none" xmlns="http://www.w3.org/2000/svg">
<path d="M0 58.4626C0 26.1746 26.1746 0 58.4626 0H155.9C188.188 0 214.363 26.1746 214.363 58.4626V155.9C214.363 188.188 188.188 214.363 155.9 214.363H58.4626C26.1746 214.363 0 188.188 0 155.9V58.4626Z" fill="#232323"/>
<path d="M42.9648 107.899L105.306 45.5582L167.647 107.899L105.306 170.241L42.9648 107.899Z" fill="white"/>
<path d="M288.25 211.382H312.93V2.9814H288.25V211.382Z" fill="black"/>
<path d="M324.976 2.9814V211.68H349.656V60.8206L413.999 211.68H438.679V2.9814H413.999V153.542L349.656 2.9814H324.976Z" fill="black"/>
<path d="M560.531 101.666C562.294 110.014 564.056 118.362 565.819 126.71H608.715C608.715 140.722 608.715 155.033 608.715 169.046C608.715 169.344 608.421 169.642 608.127 169.642C593.437 182.164 574.927 189.319 556.124 189.319C511.465 189.319 475.327 152.35 475.327 107.032C475.327 62.0132 511.465 25.0438 556.124 25.0438C574.927 25.0438 593.437 31.901 608.127 44.7211L617.529 52.7709L633.689 33.6899L624.287 25.3419C605.189 8.94422 580.803 0 556.124 0C528.212 0 501.476 11.3293 481.497 31.6029C461.518 51.8764 450.647 78.7091 450.647 107.032C450.647 166.362 497.95 214.363 556.124 214.363C574.633 214.363 592.849 209.295 608.715 199.754C614.297 196.773 619.292 192.897 624.287 188.723L633.689 180.673V101.666C609.303 101.666 584.917 101.666 560.531 101.666Z" fill="black"/>
<path d="M773.697 210.189L773.991 211.68H786.33H798.376L798.67 210.189L843.329 2.9814H818.355L786.33 152.648L754.012 2.9814H741.672H729.038L697.013 152.648L664.694 2.9814H640.015L684.379 210.189L684.673 211.68H697.013H709.059L709.353 210.189L741.672 60.5225L773.697 210.189Z" fill="black"/>
<path d="M886.67 2.68326H861.99C847.006 72.4481 832.022 141.915 817.332 211.382H842.011L851.413 166.66L877.856 174.412C891.665 179.48 901.654 190.81 904.592 203.928L904.886 205.419L906.355 211.382H931.035C916.344 141.915 901.36 72.4481 886.67 2.68326ZM885.495 150.561L856.702 141.915C862.578 114.784 868.454 87.6533 874.33 60.5225C880.794 91.8272 887.551 123.132 894.015 154.437C891.371 152.946 888.727 151.753 885.495 150.561Z" fill="black"/>
<path d="M978.26 186.338C1004.7 125.219 1030.85 64.1002 1057 2.9814H943.297C945.059 11.3293 946.822 19.6773 948.585 28.0252H1021.45C995.3 89.144 969.152 150.263 943.003 211.382H1056.41C1054.65 203.034 1052.89 194.686 1051.12 186.338H978.26Z" fill="black"/>
</svg>
